<svg xmlns="http://www.w3.org/2000/svg" viewBox="474 253 331.019 76.392">
  <defs>
    <style>
      .cls-1 {
        fill: #fec600;
      }
    </style>
  </defs>
  <g id="group-48" transform="translate(473.798 253.006)">
    <path id="path" class="cls-1" d="M150.2,98.561a6.456,6.456,0,0,0,.281-.586.706.706,0,0,1,.179-.56,6.437,6.437,0,0,0,.153-.637,6.649,6.649,0,0,0,0-.688c0-.153,0-.306,0-.484V32.969a6.522,6.522,0,0,0,0-.713,6.378,6.378,0,0,0-12.756,0h0V79.922l-50.743-52h0v-.2h0a6.4,6.4,0,0,0-.867-.738h0a6.28,6.28,0,0,0-1.1-.611,6.158,6.158,0,0,0-.842-.28l-.561-.127a6.211,6.211,0,0,0-1.02,0h-1.2l-.587.178-.612.2-.587.306-.485.28a6.353,6.353,0,0,0-.663.535l-.281.229h0a6.468,6.468,0,0,0-.714.891h0a5.646,5.646,0,0,0-.842,1.986c0,.178,0,.382,0,.586a6.653,6.653,0,0,0,0,1.044v63.4a6.378,6.378,0,0,0,12.756,0V47.941l51.023,52.1.23.229.434.382.51.407.51.28.587.28.561.178.612.153h2.373l.536-.178.638-.229.408-.229a6.282,6.282,0,0,0,.689-.407h0l.306-.28a6.385,6.385,0,0,0,.561-.509l.357-.458a6.4,6.4,0,0,0,.383-.535C150.018,98.918,150.12,98.74,150.2,98.561Z" transform="translate(-76.73 -25.728)"/>
    <path id="path-2" data-name="path" class="cls-1" d="M185.1,99.493a6.419,6.419,0,0,0,.408-.56c0-.153.153-.306.255-.458a6.485,6.485,0,0,0,.306-.637.726.726,0,0,1,.153-.535,6.419,6.419,0,0,0,.178-.687,6.607,6.607,0,0,0,0-.713v-.484h0a6.631,6.631,0,0,0,0-.738c0-.178,0-.382,0-.56v-.356a6.591,6.591,0,0,0-.281-.891h0l-.179-.306-.179-.356h0l-8.955-18v-.127a6.281,6.281,0,0,0-8.342-3.31A6.565,6.565,0,0,0,165,79.224s.128.229.179.331h0l4.618,9.269H128.464l20.971-42.167,3.5,7.028h0a6.28,6.28,0,0,0,8.342,3.31,6.564,6.564,0,0,0,3.24-8.556,6.448,6.448,0,0,0-.383-.662h0l-8.955-18v-.127c0-.127-.153-.255-.2-.382q-.074-.31-.179-.611l-.357-.484-.408-.484-.485-.433-.459-.382-.612-.356-.357-.2h-.128l-.663-.229-.536-.153h-2.449l-.536.153-.663.229h-.128l-.357.2-.612.356-.459.382-.485.433-.408.484-.357.484a6.492,6.492,0,0,0-.332.611,2.149,2.149,0,0,0-.2.382v.127L113.055,91.65h.2a6.511,6.511,0,0,0-.536.968h0a6.638,6.638,0,0,0-.332,1.095v.255a6.621,6.621,0,0,0,0,.993h0v1.171a6.51,6.51,0,0,0,.281,1.044h0a6.326,6.326,0,0,0,5.893,4.176h63.422a6.2,6.2,0,0,0,.918-.306h0l.255-.153a6.314,6.314,0,0,0,.816-.458l.383-.331a6.4,6.4,0,0,0,.536-.484Z" transform="translate(-21.756 -25.667)"/>
    <path id="path-3" data-name="path" class="cls-1" d="M219.571,66.274a6.422,6.422,0,0,0-6.327-6.493H184.059a6.493,6.493,0,1,0,0,12.986h20.078a23.233,23.233,0,0,1-41.814,5.576,25.253,25.253,0,0,1,5.944-34.63,23.764,23.764,0,0,1,25.818-1.35h0A6.41,6.41,0,0,0,202.249,40a6.791,6.791,0,0,0-1.862-9.269l-.332-.178h0l-.587-.306-.255-.127a36.463,36.463,0,0,0-38.6,2.674,38.808,38.808,0,0,0-8.98,53.243A36.729,36.729,0,0,0,203.6,95.251a38.179,38.179,0,0,0,15.69-27.424A6.578,6.578,0,0,0,219.571,66.274Z" transform="translate(28.548 -25.83)"/>
    <path id="path-4" data-name="path" class="cls-1" d="M136.733,45.869a6.28,6.28,0,0,0-8.342-3.31,6.564,6.564,0,0,0-3.24,8.556,6.28,6.28,0,0,0,8.342,3.31A6.564,6.564,0,0,0,136.733,45.869Z" transform="translate(-2.778 -0.79)"/>
    <path id="path-5" data-name="path" class="cls-1" d="M250.436,99.431a6.411,6.411,0,0,0,.408-.56c0-.153.153-.306.255-.458a6.5,6.5,0,0,0,.306-.637.726.726,0,0,1,.153-.535,6.381,6.381,0,0,0,.179-.688,6.6,6.6,0,0,0,0-.713v-.484h0a6.608,6.608,0,0,0,0-.738V93.7a6.575,6.575,0,0,0-.281-.891h0l-.179-.306-.179-.356h0l-8.955-18v-.127a6.28,6.28,0,0,0-8.342-3.31,6.564,6.564,0,0,0-3.24,8.556s.128.229.179.331h0l4.618,9.269H193.877L214.847,46.7l3.5,7.028h0a6.28,6.28,0,0,0,8.342,3.31,6.564,6.564,0,0,0,3.24-8.556,6.481,6.481,0,0,0-.383-.662h0l-8.955-18v-.127c0-.127-.153-.255-.2-.382a6.473,6.473,0,0,0-.332-.611l-.357-.484-.408-.484-.485-.433-.459-.382-.612-.356-.357-.2h-.128l-.663-.229-.536-.153H213.6l-.536.153-.663.229h-.128l-.357.2-.612.356-.459.382-.485.433-.408.484-.357.484a6.514,6.514,0,0,0-.332.611,2.148,2.148,0,0,0-.2.382v.127L178.315,91.69h.2a6.517,6.517,0,0,0-.536.968h0a6.637,6.637,0,0,0-.332,1.095v.255a6.586,6.586,0,0,0,0,.993h0v1.171a6.5,6.5,0,0,0,.281,1.044h0a6.324,6.324,0,0,0,5.74,4.634h63.422a6.2,6.2,0,0,0,.918-.306h0l.255-.153a6.306,6.306,0,0,0,.816-.458l.383-.331a6.406,6.406,0,0,0,.536-.713Z" transform="translate(79.473 -25.605)"/>
    <path id="path-6" data-name="path" class="cls-1" d="M202.023,45.869a6.281,6.281,0,0,0-8.342-3.31,6.564,6.564,0,0,0-3.24,8.556,6.28,6.28,0,0,0,8.342,3.31A6.564,6.564,0,0,0,202.023,45.869Z" transform="translate(98.497 -0.79)"/>
  </g>
</svg>
